ibm2402
version=1
nRows=21
nColumns=19
inDegrees=yes
endheader
time	ground_force1_vx	ground_force1_vy	ground_force1_vz	ground_force1_px	ground_force1_py	ground_force1_pz	ground_torque1_x	ground_torque1_y	ground_torque1_z	ground_force2_vx	ground_force2_vy	ground_force2_vz	ground_force2_px	ground_force2_py	ground_force2_pz	ground_torque2_x	ground_torque2_y	ground_torque2_z
0.957000	36.150513	430.975342	13.207095	0.168154	0.000000	-0.072211	0.000001	9.691407	0.000003	-25.135494	338.915405	-1.058651	-0.160515	0.000000	-0.062504	0.000002	-7.343498	0.000002	
0.958000	37.371216	433.416748	12.901919	0.166644	0.000000	-0.073348	0.000003	10.194939	-0.000000	-24.830318	340.746460	-2.584530	-0.160101	0.000000	-0.063243	-0.000001	-7.206612	0.000000	
0.959000	36.150513	430.975342	11.681216	0.164755	0.000000	-0.070087	0.000003	9.927159	0.000000	-25.135494	338.915405	-3.805233	-0.160155	0.000000	-0.065206	-0.000001	-7.577767	-0.000004	
0.960000	36.760864	434.027100	11.376040	0.166058	0.000000	-0.073103	0.000004	10.067769	0.000003	-23.609615	340.746460	-3.805233	-0.160459	0.000000	-0.062168	-0.000004	-7.536503	-0.000003	
0.961000	37.371216	432.806396	11.070865	0.165539	0.000000	-0.071901	0.000002	10.200145	0.000003	-23.914791	341.356812	-3.805233	-0.159725	0.000000	-0.060806	0.000005	-7.333705	-0.000002	
0.962000	36.150513	434.027100	11.376040	0.166058	0.000000	-0.071415	-0.000000	10.051931	0.000003	-22.999264	342.577515	-4.720760	-0.161116	0.000000	-0.061302	0.000003	-7.393435	-0.000003	
0.963000	35.845337	434.027100	10.155337	0.166620	0.000000	-0.071415	-0.000000	9.660674	-0.000002	-22.388912	343.187866	-3.805233	-0.160740	0.000000	-0.063682	0.000003	-7.335423	-0.000003	
0.964000	36.455688	437.078857	11.070865	0.166504	0.000000	-0.071049	0.000002	9.921061	0.000002	-22.999264	342.577515	-5.025936	-0.161472	0.000000	-0.056491	0.000003	-7.692361	-0.000003	
0.965000	37.371216	439.520264	9.850162	0.165302	0.000000	-0.070927	0.000001	10.166326	0.000004	-24.219967	341.967163	-5.636288	-0.159708	0.000000	-0.059448	0.000002	-7.701440	-0.000001	
0.966000	37.676392	440.130615	9.850162	0.166667	0.000000	-0.070688	0.000001	10.384049	0.000002	-22.083736	343.187866	-6.246639	-0.162163	0.000000	-0.062082	0.000003	-7.455832	-0.000002	
0.967000	37.981567	438.909912	10.460513	0.165601	0.000000	-0.068663	0.000002	10.318015	0.000001	-22.388912	343.187866	-3.194882	-0.160029	0.000000	-0.056213	0.000002	-7.676937	-0.000001	
0.968000	37.371216	441.351318	11.681216	0.166068	0.000000	-0.071458	0.000001	10.017947	0.000009	-22.999264	345.629272	-7.467342	-0.162430	0.000000	-0.060407	0.000002	-7.637459	-0.000002	
0.969000	37.676392	443.182373	11.376040	0.167379	0.000000	-0.070745	0.000001	10.073707	-0.000000	-21.778561	346.849976	-7.772518	-0.163794	0.000000	-0.059843	0.000004	-7.402195	-0.000005	
0.970000	37.981567	437.689209	10.155337	0.166760	0.000000	-0.067881	0.000001	10.523807	0.000002	-21.778561	345.629272	-7.162167	-0.162783	0.000000	-0.058288	0.000001	-7.969709	-0.000003	
0.971000	38.897095	445.623779	10.765689	0.167831	0.000000	-0.068983	0.000000	10.670778	0.000000	-21.778561	348.681030	-8.688046	-0.164072	0.000000	-0.060054	0.000003	-7.778855	-0.000000	
0.972000	38.286743	445.013428	10.460513	0.167033	0.000000	-0.069627	0.000005	10.488983	0.000000	-20.863033	351.732788	-8.688046	-0.162562	0.000000	-0.060227	0.000004	-7.633997	-0.000001	
0.973000	37.066040	444.403076	9.850162	0.167331	0.000000	-0.066565	-0.000001	10.452009	0.000003	-20.252682	351.122437	-8.077694	-0.162236	0.000000	-0.055812	0.000002	-7.536248	0.000002	
0.974000	38.897095	447.454834	8.324283	0.166121	0.000000	-0.067878	0.000001	10.588413	0.000005	-20.863033	351.732788	-8.993221	-0.162562	0.000000	-0.060227	0.000004	-7.729384	-0.000001	
0.975000	40.728149	443.182373	8.934634	0.169031	0.000000	-0.066614	0.000003	11.210360	0.000007	-21.778561	354.174194	-10.824276	-0.165232	0.000000	-0.056537	0.000003	-7.989611	-0.000006	
0.976000	39.202271	453.558350	9.239810	0.165905	0.000000	-0.070046	0.000002	10.713779	0.000005	-19.031979	354.174194	-10.824276	-0.164198	0.000000	-0.055503	-0.000001	-7.512512	0.000001	
0.977000	37.676392	451.116943	8.324283	0.165991	0.000000	-0.068131	0.000006	10.694580	0.000003	-19.947506	356.005249	-12.350155	-0.164468	0.000000	-0.058304	0.000002	-7.888595	-0.000004	
